# xmcd
#
# Track frame offsets:
#	150
#	16140
#	29626
#	57126
#
# Disc length: 1022 seconds
# Revision: 0
# Processed by: cddbd v1.5.2PL0 Copyright (c) Steve Scherf et al.
# Submitted via: dBpowerAMP V12.0
#
DISCID=2903fc04
DTITLE=Anemos (Κατερίνα Νιτσοπούλου) - Paradise
DYEAR=2007
DGENRE=Έντεχνο
TTITLE0=paradise
TTITLE1=Παραδίνομαι
TTITLE2=Paradise (French club mix)
TTITLE3=Ποιός μπορεί
EXTD=
EXTT0=
EXTT1=
EXTT2=
EXTT3=
PLAYORDER=
